<svg height="512" viewBox="0 0 512 512" width="512" xmlns="http://www.w3.org/2000/svg"><path d="m264 368h-68.118a48 48 0 0 0 -33.941 14.059l-17.941 17.941 40 40 19.314-19.314a16 16 0 0 1 11.313-4.686h49.373a24 24 0 0 0 24-24 24 24 0 0 0 -24-24z" fill="#fab991"/><path d="m379.313 356.686a16 16 0 0 0 -22.626 0l-59.314 59.314h-82.746a16 16 0 0 0 -11.313 4.686l-19.314 19.314 24 24 16-16h76.687a23.843 23.843 0 0 0 16.97-7.03l61.656-61.656a16 16 0 0 0 0-22.628z" fill="#f0915a"/><path d="m258.667 378.667h5.333a13.333 13.333 0 0 1 13.333 13.333 13.333 13.333 0 0 1 -13.333 13.333h-5.333a8 8 0 0 1 -8-8v-10.666a8 8 0 0 1 8-8z" fill="#f0915a"/><path d="m141.657 397.657 42.343 42.343-40 40h-96l82.343-82.343a8 8 0 0 1 11.314 0z" fill="#55525b"/><path d="m184 440 26.343 26.343a8 8 0 0 1 0 11.314l-2.343 2.343h-64z" fill="#353744"/><path d="m388 32h-160a36 36 0 0 1 0 72h160a36 36 0 0 0 0-72z" fill="#4b55a5"/><path d="m80 40h148a28 28 0 0 1 28 28 28 28 0 0 1 -28 28h-148z" fill="#d7e6f0"/><path d="m228 104h-164a8 8 0 0 1 0-16h164a20 20 0 0 0 0-40h-164a8 8 0 0 1 0-16h164a36 36 0 0 1 0 72z" fill="#6478b9"/><path d="m333.333 32h1.334a36 36 0 0 1 36 36 36 36 0 0 1 -36 36h32a36 36 0 0 0 36-36 36 36 0 0 0 -36-36z" fill="#353744"/><path d="m400 168h-328a48 48 0 0 0 -48 48 48 48 0 0 0 48 48h328z" fill="#a5c3dc"/><path d="m272 168h-200a48 48 0 0 0 -48 48 48 48 0 0 0 48 48h200z" fill="#d7e6f0"/><path d="m416 272h-344a56 56 0 0 1 0-112h344a8 8 0 0 1 0 16h-344a40 40 0 0 0 0 80h344a8 8 0 0 1 0 16z" fill="#4b55a5"/><path d="m288 272h-216a56 56 0 0 1 0-112h216a8 8 0 0 1 0 16h-216a40 40 0 0 0 0 80h216a8 8 0 0 1 0 16z" fill="#6478b9"/><rect fill="#fabe19" height="56" rx="8" width="400" x="96" y="104"/><path d="m128 104h32v56h-32z" fill="#f5871e"/><path d="m432 104h32v56h-32z" fill="#f5871e"/><rect fill="#353744" height="56" rx="8" width="384" x="96" y="272"/><rect fill="#55525b" height="24" rx="12" transform="matrix(-1 0 0 -1 848 600)" width="48" x="400" y="288"/><rect fill="#55525b" height="24" rx="12" transform="matrix(-1 0 0 -1 496 600)" width="240" x="128" y="288"/><path d="m166.141 288a6.145 6.145 0 0 0 3.406-1.031l22.453-14.969 22.453 14.969a6.145 6.145 0 0 0 3.406 1.031 6.14 6.14 0 0 0 6.141-6.141v-81.859h-64v81.859a6.14 6.14 0 0 0 6.141 6.141z" fill="#f04b37"/></svg>