<?xml version="1.0" encoding="iso-8859-1"?>
<!-- Generator: Adobe Illustrator 19.0.0, SVG Export Plug-In . SVG Version: 6.00 Build 0)  -->
<svg version="1.1" id="Layer_1" xmlns="http://www.w3.org/2000/svg" xmlns:xlink="http://www.w3.org/1999/xlink" x="0px" y="0px"
	 viewBox="0 0 511.999 511.999" style="enable-background:new 0 0 511.999 511.999;" xml:space="preserve">
<rect x="123.341" y="329.585" transform="matrix(0.7071 -0.7071 0.7071 0.7071 -196.4986 218.5376)" style="fill:#F0EBEA;" width="84.415" height="33.757"/>
<path style="fill:#2DD4AA;" d="M455.969,326.571c-74.706,74.706-195.831,74.706-270.538,0l116.283-154.254L455.968,56.034
	C530.676,130.74,530.676,251.863,455.969,326.571z"/>
<path style="fill:#4CF5CB;" d="M455.969,56.033L185.432,326.571c-74.706-74.706-74.706-195.831,0-270.538
	S381.262-18.674,455.969,56.033z"/>
<polygon style="fill:#A99E9B;" points="174.45,385.286 150.58,409.156 94.883,401.2 158.537,369.373 "/>
<path style="fill:#E26142;" d="M134.667,393.243L6.564,489.519l15.913,15.913c8.752,8.752,23.074,8.752,31.827,0l96.276-96.276
	L134.667,393.243z"/>
<polygon style="fill:#D8D1D0;" points="158.537,369.373 134.667,393.243 94.883,401.2 102.841,361.416 126.71,337.545 "/>
<path style="fill:#F1866D;" d="M134.667,393.243l-96.276,96.276c-8.752,8.752-23.074,8.752-31.827,0
	c-8.752-8.752-8.752-23.074,0-31.827l96.276-96.276L134.667,393.243z"/>
<path style="fill:#F0EBEA;" d="M322.226,39.413v303.784c83.201-0.821,150.378-68.516,150.378-151.897
	C472.604,107.929,405.427,40.234,322.226,39.413z"/>
<path style="fill:#FFFFFF;" d="M322.226,39.413c-0.506-0.011-1.024-0.011-1.53-0.011c-83.887,0-151.898,68.01-151.898,151.898
	c0,83.899,68.01,151.909,151.898,151.909c0.506,0,1.024,0,1.53-0.011c64.544-1.058,116.621-68.651,116.621-151.897
	C438.847,108.064,386.77,40.47,322.226,39.413z"/>
<path style="fill:#95341D;" d="M320.696,95.657V286.95c52.831,0,95.646-42.827,95.646-95.646
	C416.342,138.473,373.526,95.657,320.696,95.657z"/>
<path style="fill:#AB5D4A;" d="M320.696,95.657c34.185,0,61.889,42.816,61.889,95.646c0,52.819-27.704,95.646-61.889,95.646
	c-52.819,0-95.646-42.827-95.646-95.646C225.049,138.473,267.876,95.657,320.696,95.657z"/>
<circle cx="320.696" cy="191.303" r="36.571"/>
<g>
</g>
<g>
</g>
<g>
</g>
<g>
</g>
<g>
</g>
<g>
</g>
<g>
</g>
<g>
</g>
<g>
</g>
<g>
</g>
<g>
</g>
<g>
</g>
<g>
</g>
<g>
</g>
<g>
</g>
</svg>
