<svg height="480pt" viewBox="0 -4 480 480" width="480pt" xmlns="http://www.w3.org/2000/svg"><path d="m320 464s64-24.457031 32-112 8-136 8-136h-32s64-72 32-128.457031c-39.777344-70.160157-80-87.542969-80-87.542969s16 87.542969-8 140.070312c-17.886719 39.128907-50.398438 103.042969-16 171.929688 8.367188 16.761719 24 28.222656 24 72s16 53.734375 40 80zm0 0" fill="#51a262"/><path d="m120 464s-64-24-32-104-8-120-8-120h32s-72-56-32-120 80-80 80-80-16 80 8 128c17.886719 35.777344 48 96 16 160h40s-56 24-56 64-24 48-48 72zm0 0" fill="#67ac7f"/><path d="m120 152.214844-16-.429688c.273438-12.300781 3.292969-24.382812 8.839844-35.359375l14.320312 7.148438c-4.496094 8.894531-6.941406 18.679687-7.160156 28.640625zm0 0" fill="#67c086"/><path d="m112.648438 467.152344c-1.046876-2.449219-25.167969-60.617188 16.566406-127.390625 43.585937-69.730469 18.554687-101.601563-3.527344-129.730469l-5.816406-7.445312c-9.042969-9.410157-14.636719-21.597657-15.871094-34.585938h16c1.472656 9.347656 5.839844 18 12.488281 24.734375l5.777344 7.425781c22.8125 29.039063 54.046875 68.800782 4.519531 148.078125-37.144531 59.425781-16.320312 110.488281-15.425781 112.632813zm0 0" fill="#67c086"/><path d="m320 120.199219c-.253906-10.042969-2.738281-19.90625-7.273438-28.871094l14.546876-6.65625c5.445312 10.929687 8.425781 22.921875 8.726562 35.128906zm0 0" fill="#67c086"/><path d="m326.894531 468.046875-13.789062-8.09375 6.894531 4.046875-6.921875-4c1.050781-1.824219 25.257813-45.425781-8.238281-112.40625-51.246094-102.496094-20-146.839844.625-176.1875 7.929687-10.285156 12.949218-22.515625 14.535156-35.40625h16c0 18.398438-13.359375 38.792969-17.464844 44.609375-19.558594 27.789063-46.398437 65.863281.625 159.816406 37.574219 75.160157 8.976563 125.519531 7.734375 127.621094zm0 0" fill="#67c086"/><path d="m0 456h168v16h-168zm0 0" fill="#cfdfe8"/><path d="m184 456h16v16h-16zm0 0" fill="#cfdfe8"/><path d="m216 456h152v16h-152zm0 0" fill="#cfdfe8"/><path d="m384 456h16v16h-16zm0 0" fill="#cfdfe8"/><path d="m416 456h64v16h-64zm0 0" fill="#cfdfe8"/><g fill="#50b4f8"><path d="m232 112c0 8.835938-7.164062 16-16 16s-16-7.164062-16-16 7.164062-16 16-16 16 7.164062 16 16zm0 0"/><path d="m416 32c0 8.835938-7.164062 16-16 16s-16-7.164062-16-16 7.164062-16 16-16 16 7.164062 16 16zm0 0"/><path d="m432 288c0 13.253906-10.746094 24-24 24s-24-10.746094-24-24 10.746094-24 24-24 24 10.746094 24 24zm0 0"/><path d="m72 48c0 13.253906-10.746094 24-24 24s-24-10.746094-24-24 10.746094-24 24-24 24 10.746094 24 24zm0 0"/><path d="m40 224c0 8.835938-7.164062 16-16 16s-16-7.164062-16-16 7.164062-16 16-16 16 7.164062 16 16zm0 0"/><path d="m48 272h16v16h-16zm0 0"/><path d="m392 216h16v16h-16zm0 0"/><path d="m240 64h16v16h-16zm0 0"/><path d="m40 96h16v16h-16zm0 0"/><path d="m416 72h16v16h-16zm0 0"/></g></svg>