<?xml version="1.0" encoding="iso-8859-1"?>
<!-- Generator: Adobe Illustrator 19.0.0, SVG Export Plug-In . SVG Version: 6.00 Build 0)  -->
<svg version="1.1" id="Layer_1" xmlns="http://www.w3.org/2000/svg" xmlns:xlink="http://www.w3.org/1999/xlink" x="0px" y="0px"
	 viewBox="0 0 512.002 512.002" style="enable-background:new 0 0 512.002 512.002;" xml:space="preserve">
<path style="fill:#114B7F;" d="M210.471,139.827c2.108,5.503-0.99,10.006-6.882,10.006h-82.12c-5.891,0-10.711-4.822-10.711-10.715
	V72.324c0-5.894,4.82-10.716,10.711-10.716h48.355c5.892,0,12.434,4.505,14.542,10.007L210.471,139.827z"/>
<polygon style="fill:#FBD33B;" points="110.764,103.386 196.524,103.386 190.527,87.713 110.764,87.713 "/>
<g style="opacity:0.1;">
	<path d="M138.89,139.117V72.324c0-5.894,4.819-10.716,10.711-10.716h-28.132c-5.891,0-10.711,4.822-10.711,10.716v66.793
		c0,5.893,4.82,10.715,10.711,10.715h28.132C143.709,149.833,138.89,145.011,138.89,139.117z"/>
</g>
<path style="fill:#FBD33B;" d="M349.878,143.994c-3.667-4.613-11.486-8.387-17.377-8.387H103.999
	c-5.892,0-11.821,4.693-13.175,10.429l-6.895,29.171c-1.355,5.734,2.355,10.427,8.246,10.427h280.08
	c5.891,0,7.711-3.774,4.045-8.387L349.878,143.994z"/>
<g style="opacity:0.1;">
	<path d="M117.747,175.206l6.894-29.171c1.356-5.735,7.285-10.429,13.176-10.429h-33.819c-5.892,0-11.821,4.693-13.175,10.429
		l-6.895,29.171c-1.355,5.734,2.355,10.427,8.246,10.427h33.818C120.102,185.633,116.392,180.94,117.747,175.206z"/>
</g>
<path style="fill:#91CFE5;" d="M128.689,274.31c2.298,0,6.308,2.225,7.526,4.175l0.466,0.747
	c5.07,8.115,15.689,14.002,25.252,14.002h127.555c9.843,0,20.498-6.683,24.783-15.545l26.14-54.041
	c0.813-1.681,4.104-3.746,5.97-3.746h109.517l-38.568-32.964c-4.943-4.227-14.31-7.684-20.812-7.684H71.167
	c-6.503,0-12.73,5.245-13.835,11.655L42.93,274.309L128.689,274.31z"/>
<path style="opacity:0.1;enable-background:new    ;" d="M62.438,274.31l14.402-83.4c1.108-6.409,7.334-11.655,13.837-11.655H71.167
	c-6.503,0-12.73,5.245-13.835,11.655L42.93,274.311L62.438,274.31z"/>
<path style="fill:#0184B8;" d="M504.677,209.454H346.382c-5.891,0-12.811,4.339-15.377,9.644l-26.14,54.042
	c-2.565,5.305-9.486,9.644-15.377,9.644H161.934c-5.891,0-13.265-4.088-16.388-9.085l-0.469-0.752
	c-3.122-4.997-10.497-9.086-16.388-9.086H20.052c-5.892,0-9.441,4.652-7.887,10.337l32.23,117.909h394l72.831-172.781
	C513.515,213.896,510.569,209.454,504.677,209.454z"/>
<g style="opacity:0.1;">
	<path d="M44.395,392.107h26.402L38.569,274.198c-1.554-5.684,1.994-10.337,7.886-10.337H20.052c-5.892,0-9.441,4.652-7.887,10.337
		L44.395,392.107z"/>
</g>
<polygon style="fill:#FBD33B;" points="308.157,266.336 491.412,266.336 501.658,242.028 319.914,242.028 "/>
<g style="opacity:0.1;">
	<polygon points="319.914,242.028 308.157,266.336 341.704,266.336 353.461,242.028 	"/>
</g>
<ellipse style="fill:#91CFE5;" cx="81.286" cy="326.553" rx="16.802" ry="16.812"/>
<circle style="fill:#FFFFFF;" cx="146.069" cy="326.553" r="16.802"/>
<circle style="fill:#91CFE5;" cx="210.843" cy="326.553" r="16.802"/>
<ellipse style="fill:#FFFFFF;" cx="275.626" cy="326.553" rx="16.802" ry="16.812"/>
<ellipse style="fill:#91CFE5;" cx="340.4" cy="326.553" rx="16.802" ry="16.812"/>
<ellipse style="fill:#FFFFFF;" cx="405.173" cy="326.553" rx="16.802" ry="16.812"/>
<path style="fill:#114B7F;" d="M477.436,405.891c-12.844,0-24.929-5.352-33.542-14.455c-8.614,9.103-20.7,14.455-33.544,14.455
	c-12.843,0-24.928-5.351-33.541-14.454c-8.612,9.103-20.697,14.454-33.542,14.454s-24.929-5.352-33.543-14.455
	c-8.614,9.103-20.699,14.455-33.544,14.455c-12.843,0-24.926-5.351-33.54-14.454c-8.613,9.103-20.698,14.454-33.543,14.454
	c-12.844,0-24.928-5.352-33.543-14.455c-8.613,9.103-20.698,14.455-33.543,14.455c-12.843,0-24.927-5.351-33.541-14.454
	c-8.613,9.103-20.699,14.454-33.544,14.454c-12.843,0-24.928-5.352-33.542-14.455c-8.614,9.103-20.698,14.455-33.543,14.455
	c-4.328,0-7.837-3.509-7.837-7.837c0-4.329,3.509-7.837,7.837-7.837c11.079,0,21.308-6.032,26.69-15.743
	c1.38-2.492,4.005-4.038,6.853-4.038c2.848,0,5.472,1.545,6.855,4.036c5.382,9.712,15.609,15.745,26.688,15.745
	c11.08,0,21.308-6.032,26.689-15.743c1.38-2.492,4.005-4.038,6.855-4.038s5.473,1.545,6.855,4.038
	c5.382,9.711,15.609,15.743,26.688,15.743c11.081,0,21.307-6.032,26.689-15.743c1.38-2.492,4.005-4.038,6.854-4.038
	c2.849,0,5.473,1.545,6.855,4.038c5.382,9.711,15.61,15.743,26.689,15.743c11.081,0,21.307-6.032,26.688-15.743
	c1.381-2.492,4.006-4.038,6.855-4.038s5.474,1.545,6.855,4.038c5.382,9.711,15.609,15.743,26.686,15.743
	c11.08,0,21.309-6.032,26.692-15.745c1.38-2.491,4.005-4.036,6.855-4.036l0,0c2.849,0,5.473,1.545,6.855,4.038
	c5.381,9.711,15.609,15.743,26.688,15.743c11.08,0,21.306-6.032,26.687-15.743c1.38-2.492,4.005-4.038,6.855-4.038
	s5.473,1.545,6.856,4.038c5.382,9.711,15.609,15.743,26.687,15.743c11.08,0,21.308-6.032,26.691-15.743
	c1.381-2.492,4.005-4.038,6.855-4.038s5.473,1.545,6.856,4.038c5.381,9.711,15.609,15.743,26.687,15.743
	c4.328,0,7.837,3.508,7.837,7.837C485.273,402.381,481.764,405.891,477.436,405.891z"/>
<g>
	<path style="fill:#91CFE5;" d="M74.925,450.395c-16.774,0-32.252-9.127-40.396-23.819c-2.099-3.786-0.73-8.556,3.054-10.653
		c3.786-2.098,8.556-0.73,10.654,3.054c5.382,9.712,15.609,15.745,26.688,15.745c11.08,0,21.308-6.032,26.689-15.743
		c1.38-2.492,4.005-4.038,6.855-4.038s5.473,1.545,6.855,4.038c3.632,6.554,9.505,11.53,16.537,14.014
		c4.081,1.442,6.22,5.918,4.779,9.999c-1.442,4.081-5.918,6.22-10,4.779c-6.963-2.461-13.174-6.532-18.174-11.825
		C99.853,445.046,87.768,450.395,74.925,450.395z"/>
	<path style="fill:#91CFE5;" d="M410.349,450.395c-12.84,0-24.922-5.348-33.534-14.447c-3.617,3.83-7.882,7.026-12.651,9.451
		c-6.42,3.268-13.647,4.996-20.898,4.996c-12.845,0-24.929-5.352-33.543-14.455c-8.614,9.103-20.699,14.455-33.544,14.455
		c-12.843,0-24.926-5.351-33.54-14.454c-8.613,9.103-20.698,14.454-33.543,14.454c-12.847,0-24.933-5.354-33.548-14.46
		c-4.322,4.566-9.557,8.25-15.359,10.739c-3.977,1.706-8.585-0.134-10.292-4.112c-1.706-3.978,0.135-8.585,4.113-10.292
		c6.195-2.657,11.411-7.378,14.69-13.293c1.38-2.492,4.005-4.037,6.854-4.037c2.849,0,5.473,1.545,6.855,4.037
		c5.382,9.711,15.61,15.743,26.689,15.743c11.081,0,21.307-6.032,26.688-15.743c1.381-2.492,4.006-4.037,6.855-4.037
		c2.848,0,5.473,1.545,6.855,4.037c5.382,9.711,15.609,15.743,26.686,15.743c11.08,0,21.309-6.032,26.692-15.745
		c1.38-2.491,4.005-4.036,6.855-4.036l0,0c2.849,0,5.473,1.545,6.855,4.037c5.381,9.711,15.609,15.743,26.688,15.743
		c4.86,0,9.5-1.108,13.791-3.291c5.463-2.778,9.921-7.083,12.896-12.452c1.38-2.492,4.005-4.037,6.855-4.037
		s5.473,1.545,6.856,4.037c5.382,9.711,15.609,15.743,26.687,15.743c11.08,0,21.308-6.032,26.691-15.743
		c2.098-3.786,6.868-5.154,10.653-3.055c3.786,2.098,5.155,6.867,3.055,10.653C442.605,441.267,427.125,450.395,410.349,450.395z"/>
</g>
<path style="fill:#0184B8;" d="M291.924,234.971c0,1.767-1.446,3.214-3.213,3.214H87.095c-1.767,0-3.213-1.447-3.213-3.214v-23.486
	c0-1.767,1.446-3.214,3.213-3.214h201.615c1.767,0,3.213,1.447,3.213,3.214V234.971z"/>
<g style="opacity:0.1;">
	<path d="M98.187,234.971v-23.486c0-1.767,1.446-3.214,3.214-3.214H87.095c-1.767,0-3.213,1.447-3.213,3.214v23.486
		c0,1.767,1.446,3.214,3.213,3.214h14.306C99.633,238.186,98.187,236.739,98.187,234.971z"/>
</g>
<path style="fill:#114B7F;" d="M288.711,203.046H87.095c-4.653,0-8.438,3.786-8.438,8.439v23.486c0,4.653,3.785,8.439,8.438,8.439
	h201.615c4.653,0,8.438-3.786,8.438-8.439v-23.486C297.148,206.832,293.363,203.046,288.711,203.046z M147.777,213.495h18.915
	v19.466h-18.915V213.495z M137.328,232.962h-18.916v-19.466h18.916V232.962z M177.141,213.495h18.914v19.466h-18.914V213.495z
	 M206.504,213.495h18.915v19.466h-18.915V213.495z M235.867,213.495h18.915v19.466h-18.915V213.495z M89.106,213.495h18.857v19.466
	H89.106V213.495z M286.699,232.962h-21.469v-19.466h21.469V232.962z"/>
<path style="fill:#FF9B4B;" d="M353.708,148.815h-91.706c-4.328,0-7.837,3.509-7.837,7.837c0,4.328,3.509,7.837,7.837,7.837h104.161
	L353.708,148.815z"/>
<g>
</g>
<g>
</g>
<g>
</g>
<g>
</g>
<g>
</g>
<g>
</g>
<g>
</g>
<g>
</g>
<g>
</g>
<g>
</g>
<g>
</g>
<g>
</g>
<g>
</g>
<g>
</g>
<g>
</g>
</svg>
