<?xml version="1.0" standalone="no"?><svg xmlns="http://www.w3.org/2000/svg" viewBox="0 0 1440 320"><path fill="#a2d9ff" fill-opacity="1" d="M0,0L0,0L75.8,0L75.8,96L151.6,96L151.6,96L227.4,96L227.4,64L303.2,64L303.2,160L378.9,160L378.9,64L454.7,64L454.7,160L530.5,160L530.5,32L606.3,32L606.3,128L682.1,128L682.1,256L757.9,256L757.9,0L833.7,0L833.7,256L909.5,256L909.5,288L985.3,288L985.3,64L1061.1,64L1061.1,160L1136.8,160L1136.8,64L1212.6,64L1212.6,256L1288.4,256L1288.4,32L1364.2,32L1364.2,160L1440,160L1440,320L1364.2,320L1364.2,320L1288.4,320L1288.4,320L1212.6,320L1212.6,320L1136.8,320L1136.8,320L1061.1,320L1061.1,320L985.3,320L985.3,320L909.5,320L909.5,320L833.7,320L833.7,320L757.9,320L757.9,320L682.1,320L682.1,320L606.3,320L606.3,320L530.5,320L530.5,320L454.7,320L454.7,320L378.9,320L378.9,320L303.2,320L303.2,320L227.4,320L227.4,320L151.6,320L151.6,320L75.8,320L75.8,320L0,320L0,320Z"></path></svg>