<?xml version="1.0" standalone="no"?><svg xmlns="http://www.w3.org/2000/svg" viewBox="0 0 1440 320"><path fill="#7fa1bb" fill-opacity="1" d="M0,224L34.3,234.7C68.6,245,137,267,206,229.3C274.3,192,343,96,411,53.3C480,11,549,21,617,64C685.7,107,754,181,823,192C891.4,203,960,149,1029,149.3C1097.1,149,1166,203,1234,192C1302.9,181,1371,107,1406,69.3L1440,32L1440,320L1405.7,320C1371.4,320,1303,320,1234,320C1165.7,320,1097,320,1029,320C960,320,891,320,823,320C754.3,320,686,320,617,320C548.6,320,480,320,411,320C342.9,320,274,320,206,320C137.1,320,69,320,34,320L0,320Z"></path></svg>