<?xml version="1.0" encoding="iso-8859-1"?>
<!-- Generator: Adobe Illustrator 19.0.0, SVG Export Plug-In . SVG Version: 6.00 Build 0)  -->
<svg version="1.1" id="Layer_1" xmlns="http://www.w3.org/2000/svg" xmlns:xlink="http://www.w3.org/1999/xlink" x="0px" y="0px"
	 viewBox="0 0 512 512" style="enable-background:new 0 0 512 512;" xml:space="preserve">
<path style="fill:#2488FF;" d="M146.909,106.554v92.508c44.363,16.013,76.163,58.529,76.163,108.344
	c0,63.494-51.656,115.15-115.151,115.15H74.555v89.444h33.367c112.813,0,204.594-91.78,204.594-204.593
	C312.516,207.923,241.139,124.81,146.909,106.554z"/>
<path style="fill:#006DF0;" d="M312.516,302.283c-2.401-97.202-72.933-177.788-165.539-195.729v92.508
	c43.654,15.757,75.122,57.185,76.116,105.968c7.943-0.945,15.731-2.686,23.267-5.192c11.925,3.966,24.476,6.026,37.287,6.026
	C293.48,305.866,303.156,304.641,312.516,302.283z"/>
<path style="fill:#57A4FF;" d="M247.48,109.813v95.465c36.837,19.23,62.055,57.778,62.055,102.129
	c0,63.494-51.656,115.15-115.151,115.15H67.215V512h127.17c112.813,0,204.594-91.78,204.594-204.593
	C398.979,212.952,334.633,133.255,247.48,109.813z"/>
<path style="fill:#2488FF;" d="M398.794,298.669c-3.825-90.603-66.861-166.14-151.314-188.856v95.465
	c35.606,18.588,60.353,55.227,61.967,97.707c3.859-0.865,7.673-1.901,11.42-3.146c11.924,3.966,24.476,6.028,37.287,6.028
	C372.171,305.866,385.879,303.404,398.794,298.669z"/>
<path style="fill:#96C8EF;" d="M353.336,140.709c0-39.709-30.9-72.183-69.964-74.734C278.95,28.818,247.353,0,209.006,0
	s-69.943,28.818-74.366,65.974c-39.064,2.552-69.964,35.025-69.964,74.734c0,41.34,33.485,74.855,74.811,74.911
	c11.071,27.543,38.014,46.999,69.518,46.999s58.446-19.455,69.518-46.999C319.85,215.565,353.336,182.049,353.336,140.709z"/>
<path style="fill:#78B9EB;" d="M353.336,140.696c0-39.709-30.9-72.183-69.964-74.734c-3.932-33.044-29.364-59.474-61.916-64.925
	c-14.089,11.85-24.792,27.675-30.285,45.905c-42.356,10.385-73.544,48.764-73.544,93.754c0,48.427,35.894,88.678,82.474,95.512
	c5.645,9.76,12.864,18.3,21.247,25.375c26.068-4.326,47.582-22.109,57.175-45.975C319.85,215.551,353.336,182.035,353.336,140.696z"
	/>
<path style="fill:#9BC9FF;" d="M280.846,512H54.24c-24.698,0-44.722-20.023-44.722-44.722s20.023-44.722,44.722-44.722h226.606
	c63.494,0,115.151-51.655,115.151-115.15S344.34,192.255,280.846,192.255c-24.698,0-44.722-20.023-44.722-44.722
	s20.023-44.722,44.722-44.722c112.813,0,204.594,91.781,204.594,204.594S393.659,512,280.846,512z"/>
<g>
	<path style="fill:#57A4FF;" d="M280.846,476.861c-4.478,0-8.109-3.629-8.109-8.109c0-4.479,3.631-8.109,8.109-8.109
		c33.579,0,65.48-10.706,92.257-30.961c3.571-2.704,8.657-1.998,11.359,1.575c2.702,3.572,1.997,8.657-1.575,11.359
		C353.271,465.02,317.987,476.861,280.846,476.861z"/>
	<path style="fill:#57A4FF;" d="M391.156,425.326c-3.489-2.807-3.305-8.246-0.191-11.465c5.102-5.275,9.868-10.966,14.167-16.913
		c2.623-3.63,7.693-4.446,11.322-1.824c3.629,2.624,4.446,7.693,1.823,11.322c-4.75,6.572-10.016,12.861-15.653,18.688
		C401.032,426.781,396.321,429.482,391.156,425.326z"/>
</g>
<path style="fill:#B9D8F4;" d="M427.909,140.709c0-39.709-30.9-72.183-69.964-74.734C353.523,28.818,321.926,0,283.579,0
	s-69.943,28.818-74.365,65.974c-39.064,2.552-69.964,35.025-69.964,74.734c0,41.34,33.485,74.855,74.811,74.911
	c11.071,27.543,38.014,46.999,69.518,46.999s58.446-19.455,69.518-46.999C394.424,215.565,427.909,182.049,427.909,140.709z"/>
<path style="fill:#96C8EF;" d="M427.909,140.696c0-39.709-30.9-72.183-69.964-74.734c-3.932-33.044-29.364-59.474-61.915-64.925
	c-14.089,11.85-24.792,27.675-30.285,45.905c-42.356,10.385-73.544,48.764-73.544,93.754c0,48.427,35.894,88.678,82.474,95.512
	c5.645,9.76,12.864,18.3,21.247,25.375c26.068-4.326,47.582-22.109,57.175-45.975C394.424,215.551,427.909,182.035,427.909,140.696z
	"/>
<path style="fill:#D1E7F8;" d="M502.482,140.709c0-39.709-30.9-72.183-69.964-74.734C428.097,28.818,396.499,0,358.153,0
	c-38.347,0-69.943,28.818-74.366,65.974c-39.064,2.552-69.964,35.025-69.964,74.734c0,41.34,33.485,74.855,74.811,74.911
	c11.071,27.543,38.014,46.999,69.517,46.999s58.446-19.455,69.518-46.999C468.998,215.565,502.482,182.049,502.482,140.709z"/>
<g>
	<path style="fill:#FFFFFF;" d="M329.421,151.394c-2.515,0-4.965-1.016-6.729-2.794c-1.779-1.766-2.794-4.228-2.794-6.729
		c0-2.502,1.015-4.965,2.794-6.73c1.764-1.777,4.214-2.793,6.729-2.793c2.514,0,4.965,1.015,6.729,2.793
		c1.779,1.766,2.794,4.228,2.794,6.73c0,2.501-1.015,4.965-2.794,6.729C334.386,150.378,331.935,151.394,329.421,151.394z"/>
	<path style="fill:#FFFFFF;" d="M367.676,206.21c-2.515,0-4.965-1.016-6.729-2.794c-1.779-1.766-2.794-4.228-2.794-6.729
		c0-2.502,1.015-4.965,2.794-6.73c1.764-1.777,4.214-2.793,6.729-2.793c2.514,0,4.965,1.015,6.729,2.793
		c1.779,1.766,2.794,4.228,2.794,6.73c0,2.501-1.015,4.965-2.794,6.729C372.641,205.193,370.19,206.21,367.676,206.21z"/>
	<path style="fill:#FFFFFF;" d="M411.703,151.394c-2.515,0-4.965-1.016-6.729-2.794c-1.779-1.766-2.794-4.228-2.794-6.729
		c0-2.502,1.015-4.965,2.794-6.73c1.764-1.777,4.214-2.793,6.729-2.793c2.514,0,4.965,1.015,6.729,2.793
		c1.779,1.766,2.794,4.228,2.794,6.73c0,2.501-1.015,4.965-2.794,6.729C416.668,150.378,414.217,151.394,411.703,151.394z"/>
	<path style="fill:#FFFFFF;" d="M353.336,87.025c-2.515,0-4.965-1.016-6.729-2.794c-1.779-1.766-2.794-4.228-2.794-6.729
		c0-2.502,1.015-4.965,2.794-6.73c1.764-1.777,4.214-2.793,6.729-2.793c2.514,0,4.965,1.015,6.729,2.793
		c1.779,1.766,2.794,4.228,2.794,6.73c0,2.501-1.015,4.965-2.794,6.729C358.3,86.009,355.848,87.025,353.336,87.025z"/>
	<path style="fill:#FFFFFF;" d="M274.807,151.394c-2.515,0-4.965-1.016-6.729-2.794c-1.779-1.766-2.794-4.228-2.794-6.729
		c0-2.502,1.015-4.965,2.794-6.73c1.764-1.777,4.214-2.793,6.729-2.793c2.514,0,4.965,1.015,6.729,2.793
		c1.779,1.766,2.794,4.228,2.794,6.73c0,2.501-1.015,4.965-2.794,6.729C279.771,150.378,277.32,151.394,274.807,151.394z"/>
	<path style="fill:#FFFFFF;" d="M460.769,140.833c-2.515,0-4.965-1.016-6.729-2.794c-1.779-1.766-2.794-4.228-2.794-6.729
		c0-2.502,1.015-4.965,2.794-6.73c1.764-1.777,4.214-2.793,6.729-2.793c2.514,0,4.965,1.015,6.729,2.793
		c1.779,1.766,2.794,4.228,2.794,6.73c0,2.501-1.015,4.965-2.794,6.729C465.734,139.817,463.283,140.833,460.769,140.833z"/>
</g>
<g>
	<path style="fill:#9BC9FF;" d="M97.53,346.008c-2.515,0-4.965-1.016-6.729-2.794c-1.779-1.766-2.794-4.228-2.794-6.729
		c0-2.502,1.015-4.965,2.794-6.73c1.764-1.777,4.214-2.793,6.729-2.793c2.514,0,4.965,1.015,6.729,2.793
		c1.779,1.766,2.794,4.229,2.794,6.73c0,2.501-1.015,4.965-2.794,6.729C102.495,344.992,100.044,346.008,97.53,346.008z"/>
	<path style="fill:#9BC9FF;" d="M149.749,316.929c-2.515,0-4.965-1.016-6.729-2.794c-1.779-1.766-2.794-4.228-2.794-6.729
		c0-2.502,1.015-4.965,2.794-6.73c1.764-1.777,4.214-2.793,6.729-2.793c2.514,0,4.965,1.015,6.729,2.793
		c1.779,1.766,2.794,4.228,2.794,6.73c0,2.501-1.015,4.965-2.794,6.729C154.714,315.913,152.262,316.929,149.749,316.929z"/>
	<circle style="fill:#9BC9FF;" cx="97.534" cy="270.078" r="22.975"/>
</g>
<g>
</g>
<g>
</g>
<g>
</g>
<g>
</g>
<g>
</g>
<g>
</g>
<g>
</g>
<g>
</g>
<g>
</g>
<g>
</g>
<g>
</g>
<g>
</g>
<g>
</g>
<g>
</g>
<g>
</g>
</svg>
